<svg height="20" viewBox="0 0 20 20" width="20" xmlns="http://www.w3.org/2000/svg"><path d="m17.25 3.75c.4142 0 .75.33579.75.75v11c0 .4142-.3358.75-.75.75s-.75-.3358-.75-.75v-11c0-.41421.3358-.75.75-.75zm-5.9697 1.71967 4.0319 4.03394c.0504.0569.0906.11962.1207.18582.0431.09463.0671.1998.0671.31057 0 .1122-.0247.2187-.0688.3143-.0293.0635-.0679.1237-.1159.1786l-.0387.0411-3.9963 3.9963c-.2929.2929-.7677.2929-1.0606 0-.29292-.2929-.29292-.7677 0-1.0606l2.7196-2.7196975h-10.1893c-.41421 0-.75-.3358025-.75-.7500025 0-.41421.33579-.7499975.75-.7499975h10.1893l-2.7196-2.7196725c-.29292-.29289-.29292-.76777 0-1.06066.2929-.29289.7677-.29289 1.0606 0z" fill="#212121"/></svg>